HIERARCHY
ROOT Hips
{
	OFFSET 0.000000 0.000000 0.000000
	CHANNELS 6 Xposition Yposition Zposition Xrotation Yrotation Zrotation
	JOINT LeftUpLeg_virtual
	{
		OFFSET 0.000000 0.000000 0.000000
		CHANNELS 3 Xrotation Yrotation Zrotation
		JOINT LeftUpLeg
		{
			OFFSET 10.205400 -3.823500 0.155100
			CHANNELS 3 Xrotation Yrotation Zrotation
			JOINT LeftLeg
			{
				OFFSET 0.708757 -12.982077 0.567790
				CHANNELS 3 Xrotation Yrotation Zrotation
				JOINT LeftFoot
				{
					OFFSET -0.708756 -10.717838 -2.184338
					CHANNELS 3 Xrotation Yrotation Zrotation
					JOINT LeftToeBase
					{
						OFFSET 0.108149 -7.191104 7.560241
						CHANNELS 3 Xrotation Yrotation Zrotation
						JOINT LeftToe_End
						{
							OFFSET 0.070230 0.081724 4.490308
							CHANNELS 3 Xrotation Yrotation Zrotation
							End Site
							{
								OFFSET 0 0 0
							}
						}
					}
				}
			}
		}
	}
	JOINT RightUpLeg_virtual
	{
		OFFSET 0.000000 0.000000 0.000000
		CHANNELS 3 Xrotation Yrotation Zrotation
		JOINT RightUpLeg
		{
			OFFSET -10.205400 -3.823500 0.005500
			CHANNELS 3 Xrotation Yrotation Zrotation
			JOINT RightLeg
			{
				OFFSET -0.708756 -12.982134 0.610632
				CHANNELS 3 Xrotation Yrotation Zrotation
				JOINT RightFoot
				{
					OFFSET 0.708754 -10.717769 -1.945823
					CHANNELS 3 Xrotation Yrotation Zrotation
					JOINT RightToeBase
					{
						OFFSET -0.108140 -7.191069 7.372968
						CHANNELS 3 Xrotation Yrotation Zrotation
						JOINT RightToe_End
						{
							OFFSET -0.070227 0.081735 4.479403
							CHANNELS 3 Xrotation Yrotation Zrotation
							End Site
							{
								OFFSET 0 0 0
							}
						}
					}
				}
			}
		}
	}
	JOINT Spine_virtual
	{
		OFFSET 0.000000 0.000000 0.000000
		CHANNELS 3 Xrotation Yrotation Zrotation
		JOINT Spine
		{
			OFFSET 0.000000 6.876099 0.125700
			CHANNELS 3 Xrotation Yrotation Zrotation
			JOINT Spine1
			{
				OFFSET 0.000000 5.730043 0.104720
				CHANNELS 3 Xrotation Yrotation Zrotation
				JOINT Spine1_split
				{
					OFFSET 0.000000 5.730043 0.104720
					CHANNELS 3 Xrotation Yrotation Zrotation
					JOINT Spine2
					{
						OFFSET 0.000000 5.730043 0.104720
						CHANNELS 3 Xrotation Yrotation Zrotation
						JOINT Neck_virtual
						{
							OFFSET 0.000000 0.000000 0.000000
							CHANNELS 3 Xrotation Yrotation Zrotation
							JOINT Neck
							{
								OFFSET 0.000000 10.314075 0.188496
								CHANNELS 3 Xrotation Yrotation Zrotation
								JOINT Head
								{
									OFFSET 0.000000 7.643700 -2.377400
									CHANNELS 3 Xrotation Yrotation Zrotation
									JOINT HeadTop_End
									{
										OFFSET 0.000000 43.788605 -13.619600
										CHANNELS 3 Xrotation Yrotation Zrotation
										End Site
										{
											OFFSET 0 0 0
										}
									}
								}
							}
						}
						JOINT LeftShoulder_virtual
						{
							OFFSET 0.000000 0.000000 0.000000
							CHANNELS 3 Xrotation Yrotation Zrotation
							JOINT LeftShoulder
							{
								OFFSET 2.196100 4.412489 0.087492
								CHANNELS 3 Xrotation Yrotation Zrotation
								JOINT LeftShoulder_split
								{
									OFFSET 2.196100 4.412489 0.087492
									CHANNELS 3 Xrotation Yrotation Zrotation
									JOINT LeftArm
									{
										OFFSET 8.771219 -2.981674 -0.026999
										CHANNELS 3 Xrotation Yrotation Zrotation
										JOINT LeftForeArm
										{
											OFFSET 8.512804 0.000000 -0.000000
											CHANNELS 3 Xrotation Yrotation Zrotation
											JOINT LeftHand
											{
												OFFSET 18.484802 0.000000 -0.000000
												CHANNELS 3 Xrotation Yrotation Zrotation
												End Site
												{
													OFFSET 0 0 0
												}
											}
										}
									}
								}
							}
						}
						JOINT RightShoulder_virtual
						{
							OFFSET 0.000000 0.000000 0.000000
							CHANNELS 3 Xrotation Yrotation Zrotation
							JOINT RightShoulder
							{
								OFFSET -2.196100 4.412496 0.070690
								CHANNELS 3 Xrotation Yrotation Zrotation
								JOINT RightShoulder_split
								{
									OFFSET -2.196100 4.412496 0.070690
									CHANNELS 3 Xrotation Yrotation Zrotation
									JOINT RightArm
									{
										OFFSET -8.771282 -2.981682 -0.094208
										CHANNELS 3 Xrotation Yrotation Zrotation
										JOINT RightForeArm
										{
											OFFSET -8.494598 0.000000 0.000000
											CHANNELS 3 Xrotation Yrotation Zrotation
											JOINT RightHand
											{
												OFFSET -18.483803 0.000000 0.000001
												CHANNELS 3 Xrotation Yrotation Zrotation
												End Site
												{
													OFFSET 0 0 0
												}
											}
										}
									}
								}
							}
						}
					}
				}
			}
		}
	}
}
MOTION
Frames: 6
Frame Time: 0.03333333
-2.021426 31.192211 20.615244 0.000000 0.000000 0.000000 27.517779 3.870310 -14.635559 -70.471863 -6.283611 17.832627 42.988859 4.461404 -11.497088 7.338244 -0.868555 11.149889 -1.057707 0.449566 -0.100131 0.000000 0.000000 0.000000 27.578619 8.333012 -16.018276 1.194367 -22.367531 -23.136629 86.583125 4.282701 -4.651553 31.421848 -0.640918 13.365929 20.068083 -0.059778 1.729351 0.000000 0.000000 0.000000 26.757609 7.051591 -16.118656 6.435447 13.646690 -10.474428 12.332441 11.686605 -7.278567 1.756951 1.952622 0.254991 0.000000 0.000000 0.000000 12.049004 11.037114 -7.568964 -10.938269 -7.321296 7.522770 -26.045361 -31.835194 19.446839 0.000000 0.000000 0.000000 11.603297 11.767335 -7.590259 0.079959 5.340914 4.397164 -3.502938 0.179729 -0.907779 31.859274 -41.397514 -15.419155 0.357863 -29.508780 -0.619803 0.000000 0.000000 0.000000 11.857526 11.082594 -8.073110 5.341005 14.410758 -6.526340 0.128307 4.725357 -0.666962 -18.080887 57.603999 33.536553 -1.945458 41.079688 -0.278843 0.000000 0.000000 0.000000 
-2.055164 31.089218 20.923130 0.000000 0.000000 0.000000 25.691389 4.851124 -13.910033 -68.925884 -5.128486 17.364498 44.146135 4.415570 -12.140904 4.528154 -0.796523 11.833719 -0.815102 0.391835 0.169827 0.000000 0.000000 0.000000 25.591015 8.748784 -15.118856 -0.659158 -22.573437 -21.467182 82.198000 5.450469 -4.186483 28.966904 -1.346926 9.810202 19.436968 -0.426036 2.358395 0.000000 0.000000 0.000000 24.610174 7.648027 -15.392624 6.221425 12.321430 -10.831729 12.773593 10.790791 -7.411099 1.445041 2.096406 0.207179 0.000000 0.000000 0.000000 12.280618 10.276004 -7.704161 -11.064285 -7.071845 7.130049 -26.080985 -31.433231 20.026051 0.000000 0.000000 0.000000 11.663798 11.056771 -7.699894 0.183061 4.872246 5.350816 -3.564453 -0.921210 -1.632438 30.055506 -43.753434 -7.978304 0.544195 -27.649509 -0.425775 0.000000 0.000000 0.000000 12.075049 10.378552 -8.102991 5.063149 13.726776 -5.542633 0.654079 3.656891 -0.363724 -17.068279 53.723140 27.010523 -1.932436 39.779367 -0.023647 0.000000 0.000000 0.000000 
-2.019494 31.052422 21.257776 0.000000 0.000000 0.000000 23.936504 5.879081 -13.368781 -67.008561 -3.677691 16.834782 44.863172 4.183668 -12.577297 1.848393 -0.836486 12.577882 -0.692307 0.359333 0.299402 0.000000 0.000000 0.000000 23.583164 9.487384 -14.528840 -1.949803 -23.129903 -19.712742 76.969088 6.570166 -3.873532 25.956266 -1.838442 5.604977 18.574660 -0.603643 2.802056 0.000000 0.000000 0.000000 22.479686 8.377787 -14.919928 6.047995 10.967441 -11.097142 13.206978 9.617596 -7.528410 1.254717 2.100341 0.101945 0.000000 0.000000 0.000000 12.580958 9.242410 -7.854868 -11.198496 -6.917587 6.746358 -25.713948 -30.806346 20.757404 0.000000 0.000000 0.000000 11.832653 10.029925 -7.799166 0.285480 4.252556 6.170234 -3.477121 -1.785734 -2.250532 26.694818 -46.846994 -2.075892 0.684076 -25.121617 -0.136448 0.000000 0.000000 0.000000 12.444343 9.400491 -8.145948 4.972190 13.222635 -5.644652 0.946344 2.529588 -0.230658 -16.707701 50.540794 21.870884 -1.873686 37.338291 0.209131 0.000000 0.000000 0.000000 
-1.921505 31.106800 21.643608 0.000000 0.000000 0.000000 22.109235 6.987236 -13.070281 -64.684398 -2.120026 16.506240 45.298402 3.580353 -12.744038 -0.275687 -1.036259 13.160783 -0.891908 0.347060 0.328005 0.000000 0.000000 0.000000 21.527957 10.433538 -14.207609 -3.330270 -23.859963 -18.431995 71.034022 7.918348 -3.910380 23.691664 -1.507208 2.451714 15.800032 -0.692991 2.777040 0.000000 0.000000 0.000000 20.403600 9.227195 -14.729329 5.941812 9.421769 -11.284406 13.642248 8.073008 -7.551238 1.231464 2.072748 -0.014749 0.000000 0.000000 0.000000 12.949538 7.811952 -7.915498 -11.252170 -6.789754 6.418375 -24.884249 -29.707003 21.643070 0.000000 0.000000 0.000000 12.148673 8.576781 -7.824549 0.372395 3.515850 6.795888 -3.438958 -2.121125 -2.600933 21.271113 -50.257714 1.563424 0.698329 -21.995829 0.187689 0.000000 0.000000 0.000000 12.927583 8.014951 -8.117800 5.035014 12.847022 -6.805683 1.020010 1.646800 -0.320352 -16.374583 48.061152 17.402036 -1.746509 34.796255 0.340402 0.000000 0.000000 0.000000 
-1.746937 31.218988 22.129034 0.000000 0.000000 0.000000 20.177567 7.949675 -13.022412 -62.098120 -0.541777 16.562551 45.603882 2.635465 -12.595966 -1.840111 -1.363715 13.688689 -1.104708 0.334438 0.249407 0.000000 0.000000 0.000000 19.587214 11.442464 -14.195087 -5.210149 -24.532822 -17.886104 64.355033 9.750603 -4.276632 22.160837 -0.206187 1.169611 11.886836 -0.682091 2.176572 0.000000 0.000000 0.000000 18.277298 9.934245 -14.841262 5.910812 7.616111 -11.372974 14.051997 6.171715 -7.437839 1.385861 1.988521 -0.177945 0.000000 0.000000 0.000000 13.324196 5.987080 -7.814624 -11.159374 -6.593025 6.125660 -23.676279 -28.043546 22.639152 0.000000 0.000000 0.000000 12.595136 6.682527 -7.717064 0.422061 2.767059 7.288192 -3.311971 -2.078309 -2.543720 13.668377 -53.298753 2.504208 0.521961 -18.726651 0.477313 0.000000 0.000000 0.000000 13.471670 6.209517 -7.993212 5.201906 12.430769 -8.792723 0.987831 0.957117 -0.465914 -16.422958 46.171826 13.563986 -1.587054 33.207089 0.385340 0.000000 0.000000 0.000000 
-1.486259 31.359018 22.674055 0.000000 0.000000 0.000000 18.215573 8.592813 -13.252112 -59.348668 1.003626 17.118332 45.687542 1.512692 -12.167533 -3.055722 -1.701447 14.223876 -1.011183 0.333375 0.097211 0.000000 0.000000 0.000000 17.829032 12.216215 -14.469447 -7.541763 -24.947744 -17.841870 56.933520 11.929702 -4.662060 20.588419 1.692611 1.331319 8.478684 -0.499184 1.168472 0.000000 0.000000 0.000000 16.134090 10.250821 -15.190718 5.918356 5.595467 -11.334851 14.410973 4.000362 -7.167342 1.547798 1.966780 -0.359538 0.000000 0.000000 0.000000 13.681724 3.855318 -7.521913 -10.908677 -6.302357 5.876848 -22.278076 -25.820868 23.638819 0.000000 0.000000 0.000000 13.068548 4.470623 -7.445335 0.427305 2.144577 7.705996 -3.179372 -1.839850 -2.075567 4.150384 -55.582478 0.870722 0.159405 -16.027435 0.678719 0.000000 0.000000 0.000000 13.972783 4.063243 -7.724208 5.360404 11.921848 -11.221096 0.818984 0.286439 -0.416623 -18.119913 44.825562 11.026004 -1.430035 32.919302 0.358677 0.000000 0.000000 0.000000 
